<?xml version="1.0" encoding="utf-8"?>
<!-- Generator: Adobe Illustrator 21.1.0, SVG Export Plug-In . SVG Version: 6.00 Build 0)  -->
<svg version="1.1" id="Layer_1" xmlns="http://www.w3.org/2000/svg" xmlns:xlink="http://www.w3.org/1999/xlink" x="0px" y="0px"
	 viewBox="0 0 32 32" style="enable-background:new 0 0 32 32;" xml:space="preserve">
<style type="text/css">
	.Yellow{fill:#FFB115;}
	.Red{fill:#D11C1C;}
	.Black{fill:#727272;}
	.Blue{fill:#1177D7;}
	.White{fill:#FFFFFF;}
	.Green{fill:#039C23;}
	.st0{opacity:0.75;}
	.st1{opacity:0.5;}
	.st2{opacity:0.25;}
	.st3{fill:#FFB115;}
</style>
<g>
</g>
<g id="Y-Axis_Settings">
	<polygon class="Black" points="6,26  6,0 4,0 4,4 2,4 2,6 4,6 4,10 2,10 2,12 4,12 4,16 2,16 2,18 4,18 4,22 2,22 2,24 4,24 4,28 
		30,28 30,26 	"/>

	<polygon class="Blue" points="6,6 30,6 30,8 6,8 	"/>

	<polygon class="Red" points="6,18 30,18 30,20 6,20 	"/>
	
</g>
</svg>
